<?xml version="1.0" encoding="UTF-8"?>
<svg xmlns="http://www.w3.org/2000/svg" viewBox="0 0 2232 1070" width="2232" height="1070" role="img" aria-labelledby="title">
  <title>Xyu</title>
  <g fill="#000000" transform="translate(22 790) scale(1 -1)">
    <path d="M499 424 726 111Q751 77 785.0 58.5Q819 40 859 40V0H486V40Q537 40 550.5 47.0Q564 54 564 66Q564 74 559.5 84.0Q555 94 543.5 111.0Q532 128 511 157L404 309L335 224Q306 189 279.5 159.0Q253 129 236.0 106.5Q219 84 219 68Q219 52 239.0 46.0Q259 40 305 40V0H-2V40Q35 40 58.0 45.0Q81 50 99.0 64.0Q117 78 139 104L358 371L125 673Q98 708 71.0 719.0Q44 730 10 730V770H386V730Q350 730 334.0 721.0Q318 712 318 694Q318 668 348 627L451 485L580 639Q595 657 601.5 671.5Q608 686 608 699Q608 714 593.5 722.0Q579 730 527 730V770H825V730Q798 730 778.5 727.5Q759 725 745.5 718.5Q732 712 722 700Z"/>
    <path d="M516 323 287 -157Q266 -201 223.0 -230.5Q180 -260 136 -260Q103 -260 83.0 -244.0Q63 -228 63 -201Q63 -176 80.5 -162.0Q98 -148 137 -145Q183 -141 211.0 -127.0Q239 -113 252 -89L279 -37L102 401Q87 440 75.5 458.5Q64 477 49.0 483.0Q34 489 8 490V530H311V490Q272 490 256.5 482.5Q241 475 241 455Q241 448 243.5 437.0Q246 426 250 415L352 123H356L442 318Q460 360 469.5 383.5Q479 407 482.5 421.0Q486 435 486 446Q486 472 471.5 481.0Q457 490 413 490V530H654V490Q635 490 620.5 484.5Q606 479 592.0 462.0Q578 445 560.0 412.0Q542 379 516 323Z" transform="translate(848 0)"/>
    <path d="M465 262V366Q465 420 460.0 445.0Q455 470 437.0 478.0Q419 486 378 490V530H604V227Q604 166 605.5 131.5Q607 97 611 80Q616 55 631.5 47.5Q647 40 696 40V1L497 -11L486 78H482Q457 37 409.5 13.5Q362 -10 304 -10Q252 -10 210.5 9.5Q169 29 141 66Q98 124 98 231V366Q98 407 96.0 430.5Q94 454 85.5 465.5Q77 477 60.0 482.0Q43 487 13 490V530H237V247Q237 147 262.0 101.0Q287 55 342 55Q402 55 433 109Q450 136 457.5 173.0Q465 210 465 262Z" transform="translate(1494 0)"/>
  </g>
</svg>
