<?xml version="1.0" encoding="UTF-8"?>
<svg xmlns="http://www.w3.org/2000/svg" viewBox="0 0 1645 930" width="1645" height="930" role="img" aria-labelledby="title">
  <title>Xyu - Dobra Medium Italic</title>
  <g fill="#ffffff" transform="translate(5 700) scale(1 -1)">
    <path d="M590 0H436L313 253L155 0H15L247 354L79 680H231L338 446L482 680H622L407 355Z"/>
    <path d="M535 500 345 45Q316 -25 267.0 -97.5Q218 -170 180 -210L94 -171L195 -5L45 500H180L267 137H269L405 500Z" transform="translate(605 0)"/>
    <path d="M385 500H505L470 0H360L354 57H352Q294 -10 199 -10Q125 -10 90.0 32.0Q55 74 60 145L85 500H205L181 155Q178 120 201.0 101.5Q224 83 258 83Q294 83 326.5 107.5Q359 132 362 175Z" transform="translate(1115 0)"/>
  </g>
</svg>
