<?xml version="1.0" encoding="UTF-8"?>
<svg xmlns="http://www.w3.org/2000/svg" viewBox="0 0 1735 930" width="1735" height="930" role="img" aria-labelledby="title">
  <title>Xyu - Dobra Bold Italic</title>
  <g fill="#ffffff" transform="translate(8 700) scale(1 -1)">
    <path d="M630 0H427L327 223L197 0H12L240 357L75 680H276L361 475L480 680H664L453 358Z"/>
    <path d="M570 500 390 52Q361 -21 306.5 -97.5Q252 -174 212 -210L97 -160L192 -3L45 500H225L289 181H291L397 500Z" transform="translate(642 0)"/>
    <path d="M360 500H520L485 0H340L329 54H327Q270 -10 184 -10Q110 -10 77.5 32.5Q45 75 50 147L75 500H235L211 162Q210 136 226.5 124.0Q243 112 267.0 112.0Q291 112 313.0 128.0Q335 144 337 177Z" transform="translate(1187 0)"/>
  </g>
</svg>
