<?xml version="1.0" encoding="UTF-8"?>
<svg xmlns="http://www.w3.org/2000/svg" viewBox="0 0 1825 930" width="1825" height="930" role="img" aria-labelledby="title">
  <title>Xyu - Dobra Black Italic</title>
  <g fill="#ffffff" transform="translate(10 700) scale(1 -1)">
    <path d="M670 0H418L341 194L239 0H10L232 359L72 680H322L384 504L479 680H706L498 360Z"/>
    <path d="M605 500 434 60Q404 -17 345.5 -96.5Q287 -176 245 -210L100 -150L190 0L45 500H270L311 225H313L390 500Z" transform="translate(680 0)"/>
    <path d="M335 500H535L500 0H320L303 50H301Q248 -10 169 -10Q29 -10 40 150L65 500H265L242 170Q241 157 248.0 150.0Q255 143 261.5 141.5Q268 140 275.0 140.0Q282 140 289.0 142.5Q296 145 304.0 154.5Q312 164 313 180Z" transform="translate(1260 0)"/>
  </g>
</svg>
